<svg width="409" height="120" viewBox="0 0 409 120" fill="none" xmlns="http://www.w3.org/2000/svg">
<g clip-path="url(#clip0_2030_610)">
<path d="M184.413 0H144.619L153.511 5.86174L185.359 3.07766C185.556 3.05974 185.73 3.20032 185.756 3.39466C185.784 3.59037 185.652 3.76954 185.459 3.80538L157.692 8.91872L164.556 13.9439L189.438 8.24475C187.359 5.79972 185.683 3.05285 184.413 0Z" fill="url(#paint0_linear_2030_610)"/>
<path d="M175.837 22.2093L176 22.3265C178.354 23.9501 180.997 24.7591 183.955 24.7605C189.037 24.7632 195.075 22.3306 202.031 17.424C200.09 16.5529 198.282 15.5854 196.614 14.4966L175.837 22.2093Z" fill="url(#paint1_linear_2030_610)"/>
<path d="M191.103 10.0625L167.573 16.1572L173.101 20.2148L194.565 13.0657C193.322 12.1271 192.167 11.1293 191.103 10.0625Z" fill="url(#paint2_linear_2030_610)"/>
<path d="M223.938 3.07766L255.787 5.86174L264.678 0H224.884C223.611 3.05285 221.936 5.79972 219.86 8.24475L244.742 13.9439L251.607 8.91872L223.839 3.80538C223.646 3.76954 223.514 3.58899 223.541 3.39466C223.567 3.19894 223.741 3.05974 223.938 3.07766Z" fill="url(#paint3_linear_2030_610)"/>
<path d="M207.265 17.4256C214.221 22.3335 220.26 24.7662 225.341 24.762C228.299 24.7607 230.943 23.9502 233.297 22.328L233.459 22.2109L212.682 14.4995C211.014 15.587 209.205 16.5545 207.265 17.4256Z" fill="url(#paint4_linear_2030_610)"/>
<path d="M214.731 13.0643L236.195 20.2134L241.723 16.1572L218.194 10.0625C217.13 11.1293 215.975 12.1271 214.731 13.0643Z" fill="url(#paint5_linear_2030_610)"/>
<path d="M11.8926 71.7151C5.05332 71.7151 0 67.0644 0 59.7583C0 52.4521 5.05299 47.8179 11.8926 47.8179C17.0744 47.8179 21.2261 50.4731 22.8838 54.8824L18.3779 56.5238C17.348 53.8203 14.8858 52.2593 11.8927 52.2593C7.88566 52.2593 4.81199 55.0594 4.81199 59.7584C4.81199 64.4575 7.88566 67.2736 11.8927 67.2736C14.8858 67.2736 17.348 65.6965 18.3779 62.993L22.8838 64.6344C21.2263 69.0438 17.0745 71.7151 11.8926 71.7151ZM43.0842 71.3933L37.0334 61.1584H35.6334V71.3933H30.8056V48.1395H39.2377C44.4999 48.1395 46.7207 51.2453 46.7207 55.0914C46.7207 58.2134 44.9505 60.241 41.7964 60.9168L48.7966 71.3931L43.0842 71.3933ZM35.6331 52.1471V57.699H38.4815C41.0562 57.699 42.1022 56.6047 42.1022 54.9311C42.1022 53.2736 41.0562 52.1471 38.4815 52.1471H35.6331ZM71.861 71.3933L70.1713 66.5977H60.4036L58.7139 71.3933H53.7736L62.335 48.1395H68.2409L76.8024 71.3933H71.862H71.861ZM61.8198 62.5583H68.7556L65.2958 52.6934L61.8198 62.5583ZM97.967 52.3885H89.1163V57.6668H96.7601V61.867H89.1163V71.3941H84.2564V48.1403H97.9675L97.967 52.3885ZM119.535 48.1395V52.3879H114.015V71.3927H109.236V52.3879H103.684V48.1395H119.535ZM140.636 52.3885H132.011V57.6668H139.654V61.867H132.011V67.1292H140.636V71.3937H127.151V48.1399H140.636V52.3885ZM149.571 71.3933V48.1395H157.988C165.406 48.1395 169.075 52.8063 169.075 59.7586C169.075 66.7265 165.406 71.3933 157.988 71.3933H149.571ZM154.399 67.1288H157.746C162.027 67.1288 163.99 64.4574 163.99 59.7585C163.99 55.0595 162.027 52.3882 157.746 52.3882H154.399V67.1288ZM193.865 71.3933L187.782 48.1395H192.803L197.341 65.7444L202.539 48.1395H206.611L211.776 65.7444L216.363 48.1395H221.367L215.284 71.3933H209.073L204.567 57.0231L200.077 71.3933H193.865ZM229.047 71.3933V48.1395H233.875V71.3933H229.047ZM257.326 48.1395V52.3879H251.806V71.3927H247.027V52.3879H241.475V48.1395H257.326ZM279.601 48.1395H284.429V71.3933H279.601V61.834H269.768V71.3933H264.941V48.1395H269.768V57.6336H279.601V48.1395ZM317.233 71.7151C310.394 71.7151 305.341 67.0644 305.341 59.7583C305.341 52.4521 310.394 47.8179 317.233 47.8179C322.415 47.8179 326.567 50.4731 328.224 54.8824L323.719 56.5238C322.689 53.8203 320.226 52.2593 317.233 52.2593C313.226 52.2593 310.153 55.0594 310.153 59.7584C310.153 64.4575 313.226 67.2736 317.233 67.2736C320.226 67.2736 322.689 65.6965 323.719 62.993L328.224 64.6344C326.567 69.0438 322.415 71.7151 317.233 71.7151ZM346.445 71.7151C339.606 71.7151 334.552 67.0483 334.552 59.7583C334.552 52.4523 339.605 47.8179 346.445 47.8179C353.268 47.8179 358.321 52.4525 358.321 59.7583C358.321 67.0481 353.268 71.7151 346.445 71.7151ZM346.445 67.2897C350.452 67.2897 353.526 64.4735 353.526 59.7585C353.526 55.0595 350.452 52.2594 346.445 52.2594C342.438 52.2594 339.364 55.0594 339.364 59.7585C339.364 64.4736 342.438 67.2897 346.445 67.2897ZM366.726 71.3933V48.1395H375.142C382.561 48.1395 386.23 52.8063 386.23 59.7586C386.23 66.7265 382.561 71.3933 375.142 71.3933H366.726ZM371.553 67.1288H374.9C379.181 67.1288 381.144 64.4574 381.144 59.7585C381.144 55.0595 379.181 52.3882 374.9 52.3882H371.553V67.1288ZM408.2 52.3885H399.574V57.6668H407.218V61.867H399.574V67.1292H408.2V71.3937H394.715V48.1399H408.2V52.3885Z" fill="url(#paint6_linear_2030_610)"/>
<path d="M192.125 95.1459C188.038 95.1459 184.428 97.2277 182.3 100.386C183.741 102.262 184.533 104.578 184.533 106.953C184.533 109.343 183.734 111.669 182.277 113.55C184.402 116.728 188.023 118.826 192.125 118.826V119.503C185.223 119.503 179.608 113.888 179.608 106.986C179.608 100.084 185.223 94.4692 192.125 94.4692L192.125 95.1459ZM183.856 106.954C183.856 104.814 183.165 102.728 181.911 101.009C180.879 102.765 180.285 104.807 180.285 106.987C180.285 109.154 180.873 111.185 181.894 112.934C183.162 111.208 183.856 109.109 183.856 106.954ZM213.92 94.4878L213.92 119.521L207.516 106.712C207.392 106.744 207.268 106.776 207.142 106.804C206.359 106.975 205.552 107.063 204.743 107.063C203.846 107.063 202.954 106.953 202.091 106.742L195.701 119.521V94.4877H196.397V116.574L204.811 99.7462L213.225 116.574V94.4877L213.92 94.4878ZM206.993 106.124C207.061 106.109 207.128 106.09 207.197 106.074L204.81 101.302L202.411 106.101C203.906 106.442 205.496 106.452 206.993 106.124ZM230.033 95.1459C225.946 95.1459 222.336 97.2277 220.207 100.386C221.649 102.262 222.441 104.578 222.441 106.953C222.441 109.343 221.642 111.669 220.185 113.55C222.31 116.728 225.931 118.826 230.032 118.826V119.503C223.131 119.503 217.516 113.888 217.516 106.986C217.516 100.084 223.131 94.4692 230.032 94.4692L230.033 95.1459ZM221.764 106.954C221.764 104.814 221.073 102.728 219.819 101.009C218.787 102.765 218.193 104.807 218.193 106.987C218.193 109.154 218.781 111.185 219.801 112.934C221.07 111.208 221.764 109.109 221.764 106.954Z" fill="url(#paint7_linear_2030_610)"/>
</g>
<defs>
<linearGradient id="paint0_linear_2030_610" x1="144.619" y1="0" x2="189.438" y2="0" gradientUnits="userSpaceOnUse">
<stop stop-color="#00ADFF"/>
<stop offset="0.5" stop-color="#F5EC9B"/>
<stop offset="1" stop-color="#00ADFF"/>
</linearGradient>
<linearGradient id="paint1_linear_2030_610" x1="175.837" y1="14.4966" x2="202.031" y2="14.4966" gradientUnits="userSpaceOnUse">
<stop stop-color="#00ADFF"/>
<stop offset="0.5" stop-color="#F5EC9B"/>
<stop offset="1" stop-color="#00ADFF"/>
</linearGradient>
<linearGradient id="paint2_linear_2030_610" x1="167.573" y1="10.0625" x2="194.565" y2="10.0625" gradientUnits="userSpaceOnUse">
<stop stop-color="#00ADFF"/>
<stop offset="0.5" stop-color="#F5EC9B"/>
<stop offset="1" stop-color="#00ADFF"/>
</linearGradient>
<linearGradient id="paint3_linear_2030_610" x1="219.86" y1="0" x2="264.678" y2="0" gradientUnits="userSpaceOnUse">
<stop stop-color="#00ADFF"/>
<stop offset="0.5" stop-color="#F5EC9B"/>
<stop offset="1" stop-color="#00ADFF"/>
</linearGradient>
<linearGradient id="paint4_linear_2030_610" x1="207.265" y1="14.4995" x2="233.459" y2="14.4995" gradientUnits="userSpaceOnUse">
<stop stop-color="#00ADFF"/>
<stop offset="0.5" stop-color="#F5EC9B"/>
<stop offset="1" stop-color="#00ADFF"/>
</linearGradient>
<linearGradient id="paint5_linear_2030_610" x1="214.731" y1="10.0625" x2="241.723" y2="10.0625" gradientUnits="userSpaceOnUse">
<stop stop-color="#00ADFF"/>
<stop offset="0.5" stop-color="#F5EC9B"/>
<stop offset="1" stop-color="#00ADFF"/>
</linearGradient>
<linearGradient id="paint6_linear_2030_610" x1="0" y1="47.8179" x2="408.2" y2="47.8179" gradientUnits="userSpaceOnUse">
<stop stop-color="#00ADFF"/>
<stop offset="0.5" stop-color="#F5EC9B"/>
<stop offset="1" stop-color="#00ADFF"/>
</linearGradient>
<linearGradient id="paint7_linear_2030_610" x1="179.608" y1="94.4692" x2="230.033" y2="94.4692" gradientUnits="userSpaceOnUse">
<stop stop-color="#00ADFF"/>
<stop offset="0.5" stop-color="#F5EC9B"/>
<stop offset="1" stop-color="#00ADFF"/>
</linearGradient>
<clipPath id="clip0_2030_610">
<rect width="408.2" height="119.521" fill="white"/>
</clipPath>
</defs>
</svg>
