<svg width="31" height="30" viewBox="0 0 31 30" fill="none" xmlns="http://www.w3.org/2000/svg">
<path d="M4.54486 7.92559H7.58905C7.78633 7.92559 7.94582 8.08507 7.94582 8.28236C7.94582 8.47964 7.78634 8.63913 7.58905 8.63913H4.65933L6.76564 21.7746H24.9524C25.067 21.7746 25.1722 21.7415 25.256 21.6812C25.3376 21.6233 25.4013 21.5407 25.4356 21.4379L29.4959 9.33038C29.5255 9.24414 29.5349 9.15791 29.5231 9.07757C29.5125 9.00079 29.4829 8.92636 29.4321 8.85548C29.3813 8.7846 29.3199 8.72908 29.2514 8.69364C29.1829 8.6582 29.1025 8.63929 29.0128 8.63929H27.177C26.9797 8.63929 26.8202 8.47863 26.8202 8.28253C26.8202 8.08524 26.9797 7.92576 27.177 7.92576H29.0128C29.216 7.92576 29.4062 7.97183 29.5774 8.06161C29.7487 8.15021 29.8976 8.28016 30.0157 8.44672C30.1327 8.61211 30.2024 8.79284 30.2295 8.98185C30.2555 9.17205 30.2354 9.36696 30.1716 9.55833L26.1113 21.6658C26.0274 21.9163 25.8692 22.123 25.6671 22.266C25.4639 22.4101 25.2158 22.4904 24.9536 22.4904H6.88141L7.02672 23.3941C7.0468 23.5205 7.11059 23.6292 7.20156 23.706C7.29252 23.7828 7.41065 23.8277 7.53942 23.8265L26.3096 23.6729C27.1082 23.667 27.6244 24.0958 27.856 24.6475C27.9434 24.8566 27.9883 25.0846 27.9895 25.315C27.9906 25.5442 27.9493 25.7733 27.8642 25.9824C27.641 26.5341 27.133 26.9653 26.3403 26.9677L25.283 26.97C25.0869 26.97 24.9274 26.8105 24.9274 26.6144C24.9274 26.4183 25.0869 26.2589 25.283 26.2589L26.3403 26.2565C26.7928 26.2553 27.0798 26.0179 27.2027 25.7154C27.2535 25.5902 27.2783 25.4532 27.2783 25.3185C27.2771 25.1838 27.2511 25.048 27.198 24.9216C27.0704 24.6168 26.7774 24.3817 26.3155 24.3852L7.54533 24.5388C7.24055 24.5412 6.95938 24.4337 6.74203 24.2506C6.52585 24.0675 6.37226 23.8076 6.32384 23.5063L6.13247 22.3108C6.10293 22.2589 6.08521 22.1974 6.08521 22.1336C6.08521 22.1088 6.08758 22.0852 6.0923 22.0616L3.31025 4.71007C3.28072 4.52814 3.1874 4.3722 3.05509 4.26233C2.92278 4.15247 2.75148 4.08986 2.56601 4.09458L0.365187 4.15601C0.169084 4.16192 0.00488022 4.00598 0.000162424 3.80989C-0.00574419 3.61378 0.150191 3.44958 0.346285 3.44486L2.54711 3.38344C2.91095 3.3728 3.24882 3.49684 3.5099 3.71302C3.77097 3.9292 3.95528 4.23872 4.01316 4.59902L4.54712 7.92809L4.54486 7.92559ZM11.2632 26.54C12.2685 26.54 13.1025 27.2677 13.2691 28.2258C13.2809 28.2919 13.2644 28.3522 13.2207 28.403C13.1781 28.4538 13.1202 28.4809 13.0541 28.4809H9.47219C9.40604 28.4809 9.34815 28.4538 9.30562 28.403C9.2631 28.3522 9.24656 28.2908 9.25719 28.2258C9.42376 27.2689 10.2579 26.54 11.2632 26.54ZM18.2661 0C20.1716 0.187832 21.9 0.980515 23.2585 2.18192C22.4481 2.74071 21.5503 3.18841 20.6205 3.50148C20.0381 2.22208 19.2454 1.03719 18.2661 0ZM24.1065 3.04207C25.3232 4.45378 26.1018 6.2541 26.2341 8.23043H21.7628C21.7049 6.98766 21.4662 5.76853 21.0634 4.60953C22.1408 4.23975 23.1769 3.70952 24.1065 3.04207ZM20.566 8.23043H14.1985C14.2587 7.05383 14.495 5.9032 14.8931 4.81638C15.7437 5.05265 16.6084 5.18616 17.4531 5.20267C18.2647 5.21803 19.094 5.12588 19.9138 4.93805C20.2859 5.98945 20.5068 7.09871 20.5647 8.23173L20.566 8.23043ZM15.3634 3.71073C15.8808 2.65107 16.5589 1.66819 17.3823 0.799908C18.2341 1.69774 18.9299 2.71842 19.4532 3.81942C18.7905 3.95763 18.1242 4.02497 17.4721 4.01198C16.7787 3.99898 16.0663 3.89383 15.3634 3.71073ZM13.0031 8.23043H8.53179C8.67119 6.14063 9.53357 4.24934 10.8708 2.80467C11.7462 3.4804 12.7314 4.03444 13.7628 4.43845C13.3221 5.64932 13.0634 6.92627 13.0031 8.23043ZM11.7497 1.97512C13.0681 0.890665 14.7054 0.178308 16.4987 0.00111896C15.5607 0.994638 14.7952 2.1228 14.2198 3.33956C13.3433 2.99698 12.5022 2.53506 11.7485 1.9763L11.7497 1.97512ZM26.233 9.42591C26.1055 11.348 25.3659 13.101 24.2071 14.4951C23.2785 13.843 22.2118 13.3043 21.1048 12.9228C21.4817 11.8005 21.7061 10.6239 21.7616 9.42615L26.233 9.42591ZM23.3754 15.3691C22.0003 16.6296 20.2272 17.4625 18.266 17.6562C19.276 16.5859 20.0876 15.3597 20.6747 14.0341C21.634 14.3613 22.5625 14.8185 23.3764 15.369L23.3754 15.3691ZM16.5001 17.6562C14.6242 17.4707 12.9194 16.7005 11.5727 15.531C12.3382 14.9781 13.2278 14.5138 14.1528 14.1677C14.734 15.4412 15.5243 16.6225 16.5013 17.6562L16.5001 17.6562ZM10.7175 14.6804C9.46882 13.2581 8.6667 11.433 8.53318 9.42582H13.0045C13.0624 10.6745 13.3022 11.8984 13.7086 13.0618C12.6312 13.467 11.5987 14.0189 10.7175 14.6804ZM14.2002 9.42582H20.5677C20.5122 10.5115 20.3066 11.5759 19.9617 12.5883C19.1147 12.3862 18.2641 12.2823 17.4549 12.2976C16.6173 12.3142 15.7278 12.4524 14.8418 12.6934C14.4755 11.6491 14.257 10.5493 14.1991 9.42451L14.2002 9.42582ZM19.515 13.7069C18.9857 14.8575 18.2687 15.9231 17.3838 16.8551C16.5238 15.949 15.8221 14.9165 15.2976 13.8037C16.0395 13.6111 16.779 13.5001 17.4736 13.4871C18.1304 13.4741 18.8215 13.5522 19.515 13.7069ZM12.819 28.8187C12.63 29.5003 12.0051 30 11.2632 30C10.5213 30 9.89759 29.5003 9.7074 28.8187H12.819ZM24.6927 28.8187C24.5037 29.5003 23.8788 30 23.1381 30C22.3962 30 21.7713 29.5003 21.5823 28.8187H24.6927ZM23.1381 26.5411C24.1434 26.5411 24.9774 27.2688 25.144 28.2268C25.1558 28.293 25.1393 28.3532 25.0956 28.404C25.0531 28.4548 24.9952 28.482 24.929 28.482H21.3471C21.281 28.482 21.2231 28.4548 21.1806 28.404C21.138 28.3532 21.1215 28.2918 21.1321 28.2268C21.2987 27.2699 22.1328 26.5411 23.1381 26.5411ZM7.02715 27.0136C6.83104 27.0136 6.67156 26.8541 6.67156 26.658C6.67156 26.4619 6.83104 26.3024 7.02715 26.3024L9.08622 26.2977C9.28232 26.2977 9.44181 26.4572 9.44181 26.6533C9.44181 26.8494 9.28233 27.0089 9.08622 27.0089L7.02715 27.0136ZM13.4337 26.9982C13.2376 26.9982 13.0781 26.8388 13.0781 26.6427C13.0781 26.4466 13.2376 26.2871 13.4337 26.2871L20.9849 26.2694C21.181 26.2694 21.3405 26.4288 21.3405 26.6249C21.3405 26.821 21.181 26.9805 20.9849 26.9805L13.4337 26.9982Z" fill="#00ADFF"/>
</svg>
