<svg xmlns="http://www.w3.org/2000/svg" version="1.1" viewBox="-5.0 -10.0 110.0 135.0">
 <path d="m87.199 5.0039h-36.938c-4.3281 0-7.8516 3.5234-7.8516 7.8516v30.895c0 0.99609 0.80469 1.8008 1.8008 1.8008 0.99609 0 1.8008-0.80469 1.8008-1.8008l0.003906-30.895c0-2.3438 1.9062-4.25 4.25-4.25h2.7656l2.4062 4.1719c0.93359 1.6211 2.6094 2.5898 4.4805 2.5898h17.629c1.8711 0 3.5469-0.96875 4.4805-2.5898l2.4062-4.1719h2.7656c2.3438 0 4.25 1.9062 4.25 4.25v74.289c0 2.3438-1.9062 4.25-4.25 4.25h-36.938c-2.3438 0-4.25-1.9062-4.25-4.25v-5.2148c0-0.99609-0.80469-1.8008-1.8008-1.8008-0.99609 0-1.8008 0.80469-1.8008 1.8008v5.2148c0 4.3281 3.5234 7.8516 7.8516 7.8516h36.938c4.3281 0 7.8516-3.5234 7.8516-7.8516v-74.289c0-4.3281-3.5234-7.8516-7.8516-7.8516zm-8.293 5.9727c-0.29688 0.51563-0.76953 0.78516-1.3633 0.78516h-17.629c-0.59375 0-1.0664-0.27344-1.3633-0.78516l-1.3672-2.3711h23.09zm-37.086 65.922h-23.18c-2.6328 0-4.7773-2.1445-4.7773-4.7773 0-2.1016 1.3633-3.8867 3.2539-4.5273l-5.5195-20.77c-0.1875-0.71094-0.78906-1.1719-1.5273-1.1719h-3.3203c-0.99609 0-1.8008-0.80469-1.8008-1.8008 0-0.99609 0.80469-1.8008 1.8008-1.8008h3.3203c2.3828 0 4.3945 1.5469 5.0078 3.8516l5.6992 21.445h21.746l5.5352-15.359h-27.953c-0.99609 0-1.8008-0.80469-1.8008-1.8008s0.80469-1.8008 1.8008-1.8008h28.168c1.125 0 2.1836 0.54688 2.8281 1.4648 0.64453 0.91797 0.80078 2.0977 0.42188 3.1562l-6.0391 16.75c-0.25781 0.71484-0.93359 1.1914-1.6953 1.1914h-25.148c-0.63672 0-1.1758 0.53906-1.1758 1.1758s0.53906 1.1758 1.1758 1.1758h23.18c0.99609 0 1.8008 0.80469 1.8008 1.8008 0 0.99609-0.80469 1.8008-1.8008 1.8008zm-1.4492 4.7812c0 1.957-1.5859 3.543-3.543 3.543s-3.543-1.5859-3.543-3.543c0-1.957 1.5859-3.543 3.543-3.543s3.543 1.5859 3.543 3.543zm-13.062 0c0 1.957-1.5859 3.543-3.543 3.543s-3.543-1.5859-3.543-3.543c0-1.957 1.5859-3.543 3.543-3.543s3.543 1.5859 3.543 3.543zm39.777-57.77c0-0.99609-0.80469-1.8008-1.8008-1.8008h-12.562c-0.99609 0-1.8008 0.80469-1.8008 1.8008v12.562c0 0.99609 0.80469 1.8008 1.8008 1.8008h12.562c0.99609 0 1.8008-0.80469 1.8008-1.8008zm-3.6016 10.762h-8.9609v-8.9609h2.6797v2.5898h3.6016v-2.5898h2.6797zm23.055-10.762c0-0.99609-0.80469-1.8008-1.8008-1.8008h-12.562c-0.99609 0-1.8008 0.80469-1.8008 1.8008v12.562c0 0.99609 0.80469 1.8008 1.8008 1.8008h12.562c0.99609 0 1.8008-0.80469 1.8008-1.8008zm-3.6016 10.762h-8.9609v-8.9609h2.6797v2.5898h3.6016v-2.5898h2.6797zm-15.852 25.406c0-0.99609-0.80469-1.8008-1.8008-1.8008h-12.562c-0.99609 0-1.8008 0.80469-1.8008 1.8008v12.562c0 0.99609 0.80469 1.8008 1.8008 1.8008h12.562c0.99609 0 1.8008-0.80469 1.8008-1.8008zm-3.6016 10.762h-8.9609v-8.9609h2.6797v2.5898h3.6016v-2.5898h2.6797zm6.8906 1.8008c0 0.99609 0.80469 1.8008 1.8008 1.8008h12.562c0.99609 0 1.8008-0.80469 1.8008-1.8008v-12.562c0-0.99609-0.80469-1.8008-1.8008-1.8008h-12.562c-0.99609 0-1.8008 0.80469-1.8008 1.8008zm3.6016-10.762h2.6797v2.5898h3.6016v-2.5898h2.6797v8.9609h-8.9609zm12.133-19.598c0 0.99609-0.80469 1.8008-1.8008 1.8008h-11.699c-0.99609 0-1.8008-0.80469-1.8008-1.8008s0.80469-1.8008 1.8008-1.8008h11.699c0.99609 0 1.8008 0.80469 1.8008 1.8008zm-32.953 1.8008c-0.99609 0-1.8008-0.80469-1.8008-1.8008s0.80469-1.8008 1.8008-1.8008h11.699c0.99609 0 1.8008 0.80469 1.8008 1.8008s-0.80469 1.8008-1.8008 1.8008zm32.953 34.367c0 0.99609-0.80469 1.8008-1.8008 1.8008h-11.699c-0.99609 0-1.8008-0.80469-1.8008-1.8008 0-0.99609 0.80469-1.8008 1.8008-1.8008h11.699c0.99609 0 1.8008 0.80469 1.8008 1.8008zm-19.453 0c0 0.99609-0.80469 1.8008-1.8008 1.8008h-11.699c-0.99609 0-1.8008-0.80469-1.8008-1.8008 0-0.99609 0.80469-1.8008 1.8008-1.8008h11.699c0.99609 0 1.8008 0.80469 1.8008 1.8008z"/>
<text x="0.0" y="117.5" font-size="5.0" font-weight="bold" font-family="Arbeit Regular, Helvetica, Arial-Unicode, Arial, Sans-serif" fill="#000000">Created by Hendrik Hermawan</text><text x="0.0" y="122.5" font-size="5.0" font-weight="bold" font-family="Arbeit Regular, Helvetica, Arial-Unicode, Arial, Sans-serif" fill="#000000">from Noun Project</text></svg>