<svg width="36" height="30" viewBox="0 0 36 30" fill="none" xmlns="http://www.w3.org/2000/svg">
<path d="M35.5221 5.97054V5.89834C35.5221 5.86153 35.5221 5.86153 35.4853 5.82614L35.4117 5.75252L35.338 5.67891C35.3012 5.67891 35.3012 5.6421 35.2658 5.6421L22.1498 0.027605C22.0408 -0.00920165 21.8964 -0.00920165 21.7505 0.027605L8.66673 5.60803C8.48552 5.68023 8.37651 5.86144 8.37651 6.04264C8.37651 6.22384 8.48552 6.40505 8.66673 6.47724L12.7254 8.21711V15.1751C12.0727 15.0307 11.4201 14.9939 10.7689 15.0307C8.59446 15.1751 6.3109 16.3359 3.26736 18.7639C3.01395 18.9819 2.28914 19.3443 0.368059 19.8511C0.114653 19.9233 -0.0311745 20.1413 0.0056466 20.3947L1.59968 29.7084C1.59968 29.7452 1.59968 29.7806 1.63649 29.7806C1.63649 29.8174 1.67329 29.8174 1.67329 29.8528L1.7101 29.8896C1.7101 29.9264 1.74691 29.9264 1.74691 29.9264L1.78371 29.9632C1.82052 29.9632 1.82052 30 1.85591 30H1.92811H1.96492H2.03712H2.10932H2.14613C2.14613 30 2.18293 30 2.18293 29.9632C2.21974 29.9632 2.21974 29.9264 2.25513 29.9264C2.29194 29.8896 3.48676 29.1294 5.84244 27.6075C6.56726 27.7165 9.28536 28.2233 14.0688 29.0572C16.6779 29.5286 19.1426 29.0204 21.3541 27.5707C23.9278 25.903 28.0217 23.2587 33.6761 19.5976C33.8205 19.4886 33.9295 19.3074 33.8941 19.1262C33.7129 18.039 33.2415 17.3141 32.4444 16.9149C32.0452 16.7337 31.5752 16.6247 31.067 16.6247L31.0642 8.21709L34.4349 6.76744V13.2909C34.4349 13.5443 34.6529 13.7623 34.9063 13.7623C35.1597 13.7623 35.3777 13.5443 35.3777 13.2909V6.04262C35.5221 6.00722 35.5221 6.00734 35.5221 5.97054ZM32.116 17.858C32.5506 18.076 32.804 18.4385 32.9498 19.0543C27.4415 22.6062 23.418 25.2153 20.9181 26.8461C18.888 28.1868 16.7134 28.6214 14.3225 28.1868C8.70515 27.2086 5.91494 26.7003 5.91494 26.7003C5.80593 26.6635 5.66153 26.7003 5.55253 26.7725C4.06605 27.7154 3.01564 28.4034 2.39983 28.8026L1.05636 20.6483C2.50601 20.2491 3.44887 19.8867 3.91884 19.4889C6.78132 17.17 8.9205 16.0828 10.8416 15.9738C12.5447 15.8648 14.2124 16.4806 15.9524 17.967C15.9892 18.0392 16.0614 18.1114 16.1704 18.1483C16.6418 18.5475 17.1133 19.0175 17.5832 19.5611C17.6922 19.6701 17.8012 19.7055 17.9456 19.7055H18.09C20.9893 19.7055 22.0045 20.3213 22.3669 20.8649C22.3669 20.9017 22.4037 20.9017 22.4037 20.9371C22.6217 21.3363 22.6217 21.88 22.3669 22.5311C21.1706 22.6402 20.2292 22.7492 19.4676 22.8568C16.3871 23.2192 16.1337 23.256 11.7127 21.4071C11.4593 21.2981 11.169 21.4071 11.06 21.6605C10.951 21.9139 11.06 22.2041 11.3134 22.3131C15.8806 24.1974 16.3151 24.2342 19.5768 23.835C20.4106 23.726 21.4257 23.617 22.7663 23.5094C22.9475 23.5094 23.0919 23.365 23.1656 23.2192C23.5648 22.35 23.637 21.5515 23.4558 20.9003C24.1084 20.5379 25.3769 19.8131 25.5581 19.7041C29.5431 17.4588 31.3552 17.4588 32.117 17.858L32.116 17.858ZM22.91 20.0679C22.113 19.1987 20.5543 18.7626 18.1265 18.7626C18.0175 18.6536 17.9085 18.5446 17.8363 18.437C19.2137 18.6182 20.6266 18.7272 22.004 18.7272C23.2357 18.7272 24.4687 18.6551 25.7003 18.5092C25.4823 18.6182 25.2657 18.7626 25.0123 18.8716C24.8311 18.9453 23.5626 19.6701 22.91 20.0679ZM30.1952 16.625C25.9184 17.7844 21.5343 18.0378 17.1483 17.3498C17.0761 17.3498 16.9303 17.313 16.7859 17.2776C16.7137 17.2776 16.6415 17.2408 16.5679 17.2408C15.5897 16.407 14.6468 15.828 13.6686 15.4656V8.6167L21.7508 12.0596C21.823 12.0964 21.8598 12.0964 21.932 12.0964C22.0042 12.0964 22.0764 12.0964 22.1132 12.0596L30.1954 8.6167L30.1952 16.625ZM21.9318 11.0812L10.0813 6.04291L21.9318 1.0061L33.7824 6.04291L21.9318 11.0812Z" fill="#00ADFF"/>
</svg>
