<svg width="31" height="30" viewBox="0 0 31 30" fill="none" xmlns="http://www.w3.org/2000/svg">
<path d="M28.3173 18.9617C27.9877 18.3872 27.4443 17.9663 26.8057 17.7908C26.167 17.6152 25.4848 17.6993 24.9079 18.0246L18.9702 21.0515C18.6426 20.6745 18.2096 20.4042 17.727 20.2753L11.5123 18.6108C11.0367 18.4824 10.5337 18.4974 10.0665 18.654L7.93296 19.3654C7.77912 19.4167 7.61803 19.4428 7.45587 19.4428H5.52994V16.9292H0V17.9346H4.5245V28.9945H0V30H5.52994V27.9891H6.52936C6.65258 27.989 6.77534 28.0042 6.89483 28.0343L10.436 28.9191C10.6355 28.9694 10.8405 28.9947 11.0463 28.9945H15.2868C15.728 28.9947 16.1614 28.8787 16.5436 28.6582L27.3984 22.3918C27.7797 22.1708 28.0964 21.8536 28.3169 21.4721C28.5374 21.0905 28.654 20.6577 28.6552 20.217C28.6561 19.776 28.5394 19.3427 28.3173 18.9617ZM26.8956 21.5211L16.0419 27.788C15.8124 27.9198 15.5524 27.9891 15.2878 27.9891H11.0473C10.9236 27.9891 10.8003 27.9739 10.6803 27.9438L7.13865 27.059C6.93858 27.0089 6.7331 26.9836 6.52684 26.9836H5.52994V20.4483H7.45688C7.72666 20.4481 7.99468 20.4047 8.25068 20.3196L10.3842 19.6082C10.6646 19.5146 10.9664 19.5056 11.2519 19.5821L17.4113 21.2325C17.7564 21.3184 18.0615 21.5206 18.2749 21.8051C18.4884 22.0896 18.5972 22.439 18.5831 22.7945C18.569 23.0188 18.505 23.2371 18.3959 23.4336C18.2867 23.6301 18.1351 23.7998 17.9522 23.9303C17.7692 24.0609 17.5594 24.149 17.3381 24.1883C17.1168 24.2275 16.8895 24.217 16.6728 24.1573L12.4107 23.1363C12.2814 23.1061 12.1454 23.1282 12.0324 23.1979C11.9193 23.2676 11.8385 23.3792 11.8074 23.5083C11.7772 23.6376 11.7993 23.7735 11.8689 23.8865C11.9385 23.9995 12.0499 24.0804 12.1789 24.1116L16.428 25.1296C16.8648 25.2465 17.3252 25.2434 17.7604 25.1205C18.1957 24.9976 18.5897 24.7596 18.901 24.4316C19.2123 24.1035 19.4294 23.6975 19.5292 23.2564C19.6291 22.8153 19.6081 22.3554 19.4684 21.9253L25.3875 18.9084C25.5593 18.8091 25.7491 18.7447 25.9458 18.719C26.1426 18.6933 26.3426 18.7068 26.5341 18.7586C26.7257 18.8105 26.9051 18.8997 27.0621 19.0212C27.219 19.1427 27.3504 19.294 27.4486 19.4664C27.5812 19.6943 27.6506 19.9534 27.6497 20.217C27.649 20.4813 27.579 20.7408 27.4467 20.9697C27.3144 21.1985 27.1244 21.3886 26.8956 21.5211Z" fill="#00ADFF"/>
<path d="M27.7316 7.88023C28.4325 6.84574 28.7231 5.58729 28.5466 4.35023C28.37 3.11318 27.7392 1.9862 26.7769 1.18901C25.8146 0.39183 24.59 -0.0184068 23.3417 0.038285C22.0934 0.0949767 20.9109 0.614533 20.0249 1.49566L18.6007 2.92138L17.1764 1.49566C16.255 0.561383 15.0044 0.024847 13.6924 0.00084148C12.3803 -0.0231641 11.111 0.467267 10.1559 1.36721C9.20089 2.26715 8.63597 3.50512 8.58204 4.81627C8.5281 6.12742 8.98945 7.40761 9.86737 8.38295H7.54077V9.38839H10.8517L18.6007 17.1374L26.8523 8.88567H30.1633V7.88023H27.7316ZM18.6007 15.7157L12.2734 9.38839H13.9047L15.1359 6.51634L18.0768 11.9085L19.8906 8.88567H21.3832L23.1252 6.27152L24.8671 8.88567H25.4306L18.6007 15.7157ZM26.4346 7.88023H25.405L23.1252 4.46172L20.8453 7.88023H19.3216L18.119 9.88458L15.0273 4.21689L13.2421 8.38295H11.268L10.7818 7.89682C10.3948 7.52667 10.0855 7.08295 9.87229 6.59169C9.65904 6.10043 9.54605 5.57152 9.53995 5.036C9.53386 4.50049 9.63478 3.96915 9.8368 3.47316C10.0388 2.97717 10.3379 2.52652 10.7164 2.14766C11.0949 1.76881 11.5453 1.46936 12.0411 1.26691C12.5369 1.06445 13.0682 0.963056 13.6037 0.968678C14.1392 0.974299 14.6682 1.08682 15.1597 1.29964C15.6511 1.51246 16.0951 1.82129 16.4656 2.20801L18.6007 4.34308L20.7357 2.20801C21.4947 1.48579 22.5056 1.08827 23.5533 1.10005C24.6009 1.11183 25.6026 1.53198 26.3452 2.27109C27.0878 3.0102 27.5126 4.00992 27.5293 5.05751C27.546 6.10509 27.1532 7.11784 26.4346 7.88023Z" fill="#00ADFF"/>
</svg>
