<svg width="24" height="30" viewBox="0 0 24 30" fill="none" xmlns="http://www.w3.org/2000/svg">
<path d="M20.9221 15.2527C19.9668 14.8588 18.8655 15.1214 18.1902 15.9038L15.276 19.3151H15.2747C14.9089 18.4629 14.0768 17.9042 13.1483 17.8868H7.06412C5.36921 17.9055 3.80693 18.8059 2.9426 20.2637L1.31467 22.9059V22.9045C1.16059 23.1564 1.2383 23.486 1.4902 23.6415C1.74209 23.7969 2.07169 23.7192 2.2271 23.4673L3.85503 20.8251C4.52495 19.6862 5.74155 18.9788 7.064 18.9587H13.1482C13.9052 19.0029 14.4853 19.65 14.4479 20.4084C14.4706 20.7447 14.2174 21.0355 13.8825 21.0622H9.86143C9.56934 21.0689 9.33622 21.3074 9.33622 21.5982C9.33622 21.8903 9.56936 22.1288 9.86143 22.1341H13.8825C14.6917 22.1154 15.371 21.5164 15.4903 20.7139L19.0047 16.5992C19.4911 15.8395 21.5182 16.082 20.8617 17.1727L15.4018 23.7271C14.9423 24.2765 14.3098 24.653 13.6077 24.795L8.24969 25.8669C7.71107 25.9741 7.19924 26.1858 6.74236 26.4913L2.94257 29.0249H2.94123C2.70274 29.1911 2.64111 29.518 2.80323 29.7618C2.96401 30.0043 3.29095 30.0727 3.53612 29.9159L7.33591 27.3822C7.67624 27.1558 8.05811 26.9964 8.46004 26.9173L13.8181 25.8454C14.76 25.6565 15.6082 25.1514 16.2245 24.4145L21.6858 17.8614V17.86C22.0288 17.4393 22.144 16.8766 21.9912 16.3554C21.8385 15.8342 21.4393 15.4215 20.9221 15.2527Z" fill="#00ADFF"/>
<path d="M23.0996 9.0089L11.9856 0.117572C11.79 -0.0391907 11.5113 -0.0391907 11.3157 0.117572L0.201695 9.0089C0.090487 9.09733 0.0194748 9.22595 0.00339482 9.36799C-0.0126831 9.50867 0.0288519 9.6507 0.117282 9.76189C0.205712 9.8731 0.335679 9.94411 0.47771 9.96019C0.618396 9.97493 0.76042 9.93473 0.871614 9.84496L11.6508 1.22152L22.43 9.84496C22.6618 10.0232 22.9928 9.98297 23.175 9.75519C23.3572 9.52742 23.3237 9.19514 23.1 9.00889L23.0996 9.0089Z" fill="#00ADFF"/>
<path d="M18.7664 14.1955C18.9084 14.1955 19.0451 14.1393 19.1456 14.0388C19.2461 13.9383 19.3023 13.8016 19.3023 13.6596V9.56618L20.2067 10.2897C20.4385 10.4666 20.7695 10.4264 20.9517 10.1999C21.1339 9.97217 21.1004 9.63989 20.8767 9.4523L11.9854 2.34047C11.7897 2.18371 11.511 2.18371 11.3154 2.34047L2.4241 9.4523C2.3129 9.54207 2.24188 9.6707 2.22581 9.81273C2.20973 9.95341 2.25126 10.0954 2.33969 10.2066C2.42947 10.3178 2.55809 10.3889 2.70012 10.4049C2.84081 10.4197 2.98283 10.3781 3.09403 10.2897L3.99976 9.56483L3.99842 16.8163C4.00512 17.1083 4.24361 17.3415 4.53436 17.3415C4.82645 17.3415 5.06495 17.1083 5.07031 16.8163V8.7087L11.6505 3.44429L18.2306 8.7087V13.6596C18.2306 13.8016 18.2869 13.9383 18.3874 14.0388C18.4879 14.1393 18.6244 14.1955 18.7664 14.1955Z" fill="#00ADFF"/>
<path d="M12.7855 16.8161C18.3353 15.4025 17.3866 7.37284 11.6493 7.25073C5.99766 7.36864 4.9539 15.2015 10.3724 16.7972H10.3738C10.6565 16.8669 10.9446 16.6994 11.0209 16.418C11.0973 16.1366 10.9352 15.8459 10.6551 15.7628C6.43448 14.5382 7.25456 8.39612 11.6506 8.32272C16.0479 8.39775 16.8667 14.5383 12.6461 15.7628C12.3916 15.8378 12.2281 16.087 12.2643 16.3496C12.2991 16.6123 12.5202 16.8107 12.7855 16.8161Z" fill="#00ADFF"/>
<path d="M11.6505 15.8312C11.7926 15.8312 11.9292 15.7749 12.0297 15.6745C12.1302 15.574 12.1865 15.4373 12.1865 15.2953V14.6696C12.9181 14.411 13.3575 13.662 13.2249 12.8956C13.0922 12.1305 12.4277 11.5718 11.6506 11.5745C11.4375 11.5745 11.2459 11.4458 11.1642 11.2502C11.0838 11.0533 11.128 10.8268 11.2781 10.6768C11.4295 10.5267 11.6546 10.4811 11.8515 10.5629C12.0485 10.6446 12.1758 10.8362 12.1758 11.0479C12.1758 11.1913 12.2334 11.3266 12.3339 11.4271C12.4344 11.5276 12.5697 11.5839 12.7117 11.5839C13.8707 11.4137 12.9422 9.69601 12.1865 9.54996V8.92559C12.1865 8.62948 11.9467 8.38965 11.6506 8.38965C11.3545 8.38965 11.1146 8.62948 11.1146 8.92559V9.5513V9.54996C10.3911 9.81659 9.96235 10.5615 10.0937 11.3213C10.225 12.0809 10.8802 12.6383 11.6506 12.6464C11.8636 12.6464 12.0552 12.7737 12.1356 12.9706C12.2174 13.1676 12.1718 13.3927 12.0217 13.5441C11.8717 13.6942 11.6452 13.7384 11.4496 13.658C11.2526 13.5763 11.124 13.3847 11.124 13.1716C11.124 13.0296 11.0677 12.8929 10.9673 12.7924C10.8668 12.6919 10.7314 12.6357 10.5881 12.6357C9.42909 12.8058 10.3576 14.5235 11.1133 14.6696V15.2953H11.1146C11.1146 15.4373 11.1709 15.574 11.2714 15.6745C11.3719 15.775 11.5085 15.8312 11.6505 15.8312Z" fill="#00ADFF"/>
</svg>
