<svg width="45" height="30" viewBox="0 0 45 30" fill="none" xmlns="http://www.w3.org/2000/svg">
<path d="M44.8067 23.7507V16.0975C44.8067 15.4186 44.6125 14.8218 44.2132 14.2731L39.8803 8.31746C39.4451 7.71922 38.7979 7.38968 38.0582 7.38968H32.4788V0.62229C32.4788 0.278617 32.2002 0 31.8565 0H8.73326C8.38959 0 8.11098 0.278617 8.11098 0.62229V23.7502C8.11098 24.0939 8.38959 24.3725 8.73326 24.3725H12.6447C12.6447 24.3853 12.6438 24.398 12.6438 24.4112C12.6438 25.1763 12.9083 25.8802 13.35 26.4379H1.20074C0.857062 26.4379 0.578446 26.7165 0.578446 27.0602C0.578446 27.4038 0.857062 27.6824 1.20074 27.6824H44.184C44.5276 27.6824 44.8062 27.4038 44.8062 27.0602C44.8062 26.7165 44.5276 26.4379 44.184 26.4379H40.0778C40.5195 25.8802 40.784 25.1763 40.784 24.4112C40.784 24.3985 40.7831 24.3857 40.7831 24.3725H44.184C44.5276 24.3725 44.8062 24.0939 44.8062 23.7502L44.8067 23.7507ZM34.9481 26.4383H18.4801C18.9218 25.8806 19.1863 25.1768 19.1863 24.4117C19.1863 24.3989 19.1854 24.3857 19.1854 24.373H31.8565H34.2424C34.2424 24.3857 34.2415 24.3985 34.2415 24.4117C34.2415 25.1768 34.5064 25.8806 34.9481 26.4383ZM9.35555 11.221H17.7494L16.1286 13.8705H9.35555V11.221ZM21.2314 7.91392H25.5681L19.9015 17.1771H15.5648L21.2314 7.91392ZM25.0038 11.221H31.2342V13.8705H23.383L25.0038 11.221ZM31.2342 1.24505V9.97643H25.7651L27.2087 7.61644C27.326 7.42457 27.3308 7.18367 27.2204 6.98756C27.1101 6.79144 26.9027 6.66934 26.6778 6.66934H20.8825C20.6657 6.66934 20.4648 6.78201 20.3517 6.96681L18.5107 9.97643H9.35555V1.24505H31.2342ZM9.35555 23.1284V15.1146H15.3672L13.9237 17.4745C13.8063 17.6664 13.8016 17.9073 13.9119 18.1034C14.0223 18.2995 14.2297 18.4216 14.4546 18.4216H20.2499C20.4667 18.4216 20.6675 18.309 20.7807 18.1242L22.6216 15.1146H31.2342V23.1284H18.9237C18.424 21.9607 17.2633 21.1404 15.915 21.1404C14.5668 21.1404 13.4061 21.9607 12.9064 23.1284H9.35555ZM13.8884 24.4117C13.8884 23.2944 14.7978 22.385 15.915 22.385C17.0323 22.385 17.9417 23.2944 17.9417 24.4117C17.9417 25.5289 17.0323 26.4383 15.915 26.4383C14.7978 26.4383 13.8884 25.5289 13.8884 24.4117ZM35.486 24.4117C35.486 23.2944 36.3954 22.385 37.5127 22.385C38.63 22.385 39.5394 23.2944 39.5394 24.4117C39.5394 25.5289 38.63 26.4383 37.5127 26.4383C36.3954 26.4383 35.486 25.5289 35.486 24.4117ZM40.5214 23.1284C40.0217 21.9607 38.861 21.1404 37.5127 21.1404C36.1644 21.1404 35.0038 21.9607 34.5041 23.1284H32.4788V8.63426H38.0582C38.399 8.63426 38.6734 8.77381 38.8738 9.04959L43.2067 15.0052C43.4523 15.3427 43.5617 15.6798 43.5617 16.0975V20.4879H42.3029V21.7325H43.5617V23.1284H40.5214ZM42.747 16.0249C42.8531 15.816 42.8333 15.5657 42.6956 15.3767L38.4363 9.52197C38.3194 9.36121 38.1322 9.26598 37.9332 9.26598H33.7319C33.3882 9.26598 33.1096 9.5446 33.1096 9.88827V15.743C33.1096 16.0866 33.3882 16.3653 33.7319 16.3653H42.1926C42.4265 16.3653 42.641 16.2333 42.747 16.0249ZM34.3541 15.1202V10.5101H37.6164L40.9702 15.1202H34.3541ZM33.7319 17.2101H35.6129V18.4546H33.7319V17.2101ZM16.724 24.4117C16.724 24.8576 16.3606 25.2211 15.9146 25.2211C15.4686 25.2211 15.1051 24.8576 15.1051 24.4117C15.1051 23.9657 15.4686 23.6022 15.9146 23.6022C16.3606 23.6022 16.724 23.9657 16.724 24.4117ZM38.3217 24.4117C38.3217 24.8576 37.9582 25.2211 37.5123 25.2211C37.0663 25.2211 36.7028 24.8576 36.7028 24.4117C36.7028 23.9657 37.0663 23.6022 37.5123 23.6022C37.9582 23.6022 38.3217 23.9657 38.3217 24.4117ZM5.6699 23.7507C5.6699 24.0944 5.39129 24.373 5.04762 24.373H2.55893C2.21526 24.373 1.93664 24.0944 1.93664 23.7507C1.93664 23.407 2.21526 23.1284 2.55893 23.1284H5.04762C5.39129 23.1284 5.6699 23.407 5.6699 23.7507ZM0.622289 14.2716C0.278616 14.2716 0 13.993 0 13.6493C0 13.3057 0.278616 13.0271 0.622289 13.0271H4.802C5.14567 13.0271 5.42429 13.3057 5.42429 13.6493C5.42429 13.993 5.14567 14.2716 4.802 14.2716H0.622289ZM3.07326 16.2092H6.25636C6.60004 16.2092 6.87865 16.4878 6.87865 16.8315C6.87865 17.1752 6.60004 17.4538 6.25636 17.4538H3.07326C2.72959 17.4538 2.45097 17.1752 2.45097 16.8315C2.45097 16.4878 2.72959 16.2092 3.07326 16.2092ZM5.75005 20.2041C5.75005 20.5478 5.47143 20.8264 5.12776 20.8264H1.23091C0.887234 20.8264 0.608618 20.5478 0.608618 20.2041C0.608618 19.8605 0.887234 19.5818 1.23091 19.5818H5.12823C5.4719 19.5818 5.75005 19.8605 5.75005 20.2041ZM28.3429 29.3777C28.3429 29.7214 28.0643 30 27.7206 30H6.42278C6.07911 30 5.80049 29.7214 5.80049 29.3777C5.80049 29.034 6.07911 28.7554 6.42278 28.7554H27.7216C28.0652 28.7554 28.3439 29.034 28.3439 29.3777H28.3429ZM41.6161 29.3777C41.6161 29.7214 41.3375 30 40.9938 30H35.7463C35.4026 30 35.124 29.7214 35.124 29.3777C35.124 29.034 35.4026 28.7554 35.7463 28.7554H40.9938C41.3375 28.7554 41.6161 29.034 41.6161 29.3777Z" fill="#00ADFF"/>
</svg>
