<svg width="29" height="30" viewBox="0 0 29 30" fill="none" xmlns="http://www.w3.org/2000/svg">
<path d="M28.8357 9.35051C28.8357 7.66018 27.4604 6.2848 25.77 6.2848C24.0796 6.2848 22.7043 7.66014 22.7043 9.35051C22.7043 9.36678 22.7087 9.38601 22.7087 9.40228C19.8915 7.50932 16.32 6.99171 13.0709 8.00179L14.2023 5.91954L20.2465 3.27974C20.2613 3.27382 20.2746 3.26643 20.2864 3.25755C21.718 2.34954 21.4577 1.48439 21.2788 1.15459C20.7345 0.14599 18.7351 -0.327249 17.4573 0.249535C17.4513 0.252493 17.4454 0.25545 17.4395 0.258408L12.4145 2.93221L5.34239 1.72102C5.26401 1.70771 5.18563 1.72546 5.12055 1.7713L3.45536 2.93073C3.36515 2.99433 3.31634 3.10228 3.32817 3.21172C3.34148 3.32116 3.41247 3.4158 3.51599 3.45573L8.04432 5.257L4.86181 6.95032L1.8316 6.38686C1.76505 6.37503 1.69554 6.38538 1.63639 6.41644L0.159016 7.20171C0.0673247 7.25052 0.00816959 7.34221 0.000775706 7.44425C-0.00661818 7.54629 0.0392256 7.64685 0.122042 7.70749L3.69204 10.3458C3.74528 10.3843 3.8074 10.405 3.87099 10.405C3.9124 10.405 3.95232 10.3961 3.99078 10.3798L9.34595 8.04172L8.64052 10.6238C8.58432 10.6785 8.52812 10.7318 8.47193 10.788C6.34678 12.9146 5.17701 15.7407 5.17701 18.7471C5.17701 21.7536 6.3483 24.5797 8.47488 26.7051C10.6 28.8302 13.4261 30 16.4314 30H16.4343C19.4409 30 22.2669 28.8287 24.3923 26.7021C26.0531 25.0399 27.1371 22.9428 27.529 20.6345C27.9017 18.4324 27.6163 16.2023 26.7142 14.1734C27.5557 12.7788 28.8378 10.4733 28.8378 9.35244L28.8357 9.35051ZM25.77 6.88524C27.1291 6.88524 28.2353 7.99145 28.2353 9.35051C28.2353 10.4153 26.6366 13.1777 25.77 14.5546C24.9034 13.1763 23.3047 10.4151 23.3047 9.35051C23.3047 7.99145 24.411 6.88524 25.77 6.88524ZM4.25847 3.10524L5.36468 2.33473L11.5509 3.39361L8.74099 4.88874L4.25847 3.10671V3.10524ZM3.90946 9.76163L0.861501 7.50931L1.82573 6.99613L4.85594 7.55959C4.92249 7.57142 4.99199 7.56107 5.05115 7.53001L17.7146 0.79374C18.7913 0.313119 20.387 0.762684 20.7522 1.44C21.0184 1.93394 20.4875 2.41752 19.9847 2.73993L14.6682 5.06175L14.8811 4.67135C14.961 4.52642 14.9063 4.34304 14.7613 4.26466C14.6164 4.18629 14.433 4.23952 14.3546 4.38445L9.82632 12.721L8.5619 13.1869L10.4238 6.37073C10.4682 6.21101 10.3735 6.04538 10.2138 6.00249C10.0541 5.95812 9.88845 6.05277 9.84557 6.21249L9.54979 7.29799L3.91068 9.76031L3.90946 9.76163ZM7.91723 13.8905C7.97343 13.9423 8.04589 13.9689 8.11983 13.9689C8.15533 13.9689 8.18934 13.963 8.22336 13.9512L10.14 13.2443C10.208 13.2191 10.2657 13.1703 10.2997 13.1053L12.6467 8.78401C14.964 7.90557 17.4987 7.88043 19.7956 8.64056C20.6267 10.3043 20.1002 10.637 19.5856 10.955C19.3785 11.0837 19.1641 11.2153 19.0591 11.4312C19 11.551 19.031 11.6826 19.068 11.8334C19.1124 12.0183 19.1686 12.2476 19.0606 12.4043C18.9689 12.5403 18.7471 12.635 18.4203 12.6808C17.8361 12.7622 17.8953 13.3138 17.9263 13.6096C17.947 13.8107 17.9692 14.0192 17.8834 14.0991C17.8346 14.1449 17.6571 14.2396 17.0626 14.136C16.758 14.0828 16.5938 14.1908 16.5095 14.2899C16.2493 14.596 16.443 15.1609 16.65 15.7569C16.7225 15.9669 16.826 16.2686 16.8438 16.415C16.6515 16.4697 16.5125 16.5747 16.4297 16.7256C16.2197 17.1115 16.4489 17.672 16.7136 18.3212C16.9532 18.9084 17.2253 19.5724 17.1336 20.0589C17.1011 20.2305 16.7536 20.3887 16.3557 20.3369C16.0674 20.3 15.1342 20.05 15.251 18.4129C15.3146 17.5256 14.8828 17.2831 14.5367 17.0864C14.204 16.8986 13.9422 16.7507 13.9822 15.9846C14.0502 14.6654 13.6524 14.4658 13.083 14.3268C13.0091 14.3091 12.9322 14.2898 12.8582 14.2647C11.7254 13.8831 11.2743 14.7542 11.0318 15.223C10.9786 15.3265 10.9076 15.464 10.8617 15.5158C10.1578 15.4256 10.1267 15.2866 10.0972 15.1623C9.99218 14.7024 9.67569 14.5767 8.6878 14.6063C8.65822 14.6078 8.6242 14.6122 8.5754 14.6181C8.00604 14.6965 7.23852 14.6906 6.98414 13.8077C7.34647 13.1171 7.78717 12.4634 8.30183 11.8586L7.82859 13.5888C7.79901 13.6968 7.83303 13.8136 7.91584 13.889L7.91723 13.8905ZM7.60962 23.5889C7.64364 23.8107 7.67469 24.0577 7.38335 24.3712C6.48863 22.9397 5.95182 21.3159 5.81576 19.6108C7.12012 20.2541 7.31089 20.2349 7.59483 20.127C7.69244 20.09 7.81371 20.0441 8.2618 20.1344C8.40081 20.331 8.79864 21.0246 8.89919 21.2139C8.89919 21.4683 8.89624 22.0096 8.85778 22.224C8.51469 22.1693 8.12869 22.258 7.64512 23.135C7.56378 23.2829 7.58744 23.4381 7.60962 23.5889ZM16.4342 29.3995H16.4312C14.0621 29.3995 11.8128 28.629 9.96415 27.2108C10.9032 26.9831 11.378 26.4122 11.7373 25.9701C12.141 25.4732 12.3244 25.278 12.8199 25.4776C13.339 25.6861 13.7368 25.7009 14.0355 25.5249C14.488 25.2587 14.5679 24.6346 14.6389 24.0845C14.6906 23.6793 14.7498 23.2208 14.9494 23.1173C15.0899 23.0448 15.3665 23.1114 15.7288 23.3051C16.4401 23.6852 16.8749 23.3376 17.1633 23.1069C17.3304 22.9738 17.4369 22.8925 17.5449 22.9058C17.6395 22.9162 17.8111 23.0049 18.095 23.3643C18.1453 23.4278 18.1956 23.4929 18.2488 23.5595C18.7723 24.2309 19.3136 24.9259 19.8194 24.8845C19.9554 24.8727 20.1462 24.8061 20.2882 24.5444C20.3577 24.4172 20.4656 24.2634 20.5943 24.2486C20.8472 24.219 21.2258 24.6405 21.4757 24.92C21.6472 25.1108 21.7818 25.2616 21.9119 25.3341C22.048 25.4095 22.2121 25.4643 22.3852 25.5204C22.7312 25.6343 23.0891 25.7512 23.206 26.0351C23.305 26.2747 23.2326 26.6444 23.0107 27.125C21.1429 28.5965 18.8523 29.3966 16.4388 29.3981L16.4342 29.3995ZM23.9674 26.2776C23.8816 26.3634 23.7944 26.4447 23.7071 26.5261C23.7456 26.2717 23.7264 26.0484 23.6465 25.8547C23.4454 25.3666 22.9396 25.1995 22.5314 25.0665C22.3806 25.0177 22.2386 24.9703 22.1425 24.9171C22.0833 24.8846 21.9429 24.7278 21.8305 24.6021C21.477 24.2072 21.0363 23.7163 20.5364 23.7739C20.2688 23.805 20.044 23.9869 19.8636 24.3167C19.8488 24.3433 19.8118 24.4039 19.7778 24.4069C19.5323 24.4276 18.9422 23.6704 18.6257 23.2652C18.5725 23.1972 18.5207 23.1306 18.4705 23.067C18.1525 22.6633 17.8745 22.4607 17.5979 22.4282C17.2874 22.3927 17.0625 22.5731 16.8629 22.7313C16.5864 22.9517 16.3867 23.1114 15.9534 22.8807C15.4181 22.5938 15.0291 22.5332 14.7274 22.6884C14.303 22.9073 14.2305 23.4737 14.161 24.0209C14.1019 24.4838 14.0412 24.9615 13.7913 25.1093C13.6301 25.204 13.3639 25.1774 12.9971 25.031C12.1527 24.6923 11.7519 25.1877 11.363 25.6669C10.9681 26.1549 10.5141 26.6962 9.47151 26.8086C9.27482 26.6385 9.08258 26.464 8.89772 26.2791C8.43186 25.8133 8.01632 25.3105 7.65102 24.7811C8.19081 24.2634 8.12573 23.8035 8.08284 23.5166C8.07397 23.4619 8.06361 23.388 8.06657 23.3599C8.46587 22.6382 8.67588 22.6781 8.80157 22.7018C8.88882 22.718 9.03523 22.7461 9.16537 22.6397C9.33988 22.4947 9.37685 22.233 9.37685 21.1593C9.37685 21.0898 9.37685 21.0676 8.9953 20.4139C8.58567 19.7144 8.54573 19.7055 8.43628 19.6804C7.83735 19.5503 7.61401 19.605 7.42324 19.6774C7.30345 19.7233 7.18662 19.7632 5.78466 19.0578C5.7817 18.9543 5.77727 18.8508 5.77727 18.7458C5.77727 17.2151 6.09966 15.7348 6.70894 14.3802C6.99732 14.8712 7.5593 15.2439 8.64184 15.0945C8.66994 15.0901 8.69212 15.0871 8.70395 15.0871C9.25556 15.0709 9.47741 15.1167 9.56612 15.1566C9.59569 15.1699 9.6164 15.2084 9.63119 15.2705C9.71844 15.6491 9.94471 15.8901 10.8468 15.9981C11.1529 16.0351 11.3082 15.7349 11.4591 15.4436C11.7548 14.8727 12.0166 14.4867 12.7058 14.7189C12.7989 14.75 12.8847 14.7707 12.969 14.7914C13.3476 14.8831 13.5561 14.9348 13.5029 15.9582C13.4482 17.0215 13.9214 17.2892 14.3015 17.5036C14.6106 17.6781 14.8147 17.7934 14.7733 18.3776C14.6564 20.0103 15.4831 20.7053 16.295 20.8118C16.3704 20.8222 16.4444 20.8266 16.5168 20.8266C17.0714 20.8266 17.5299 20.5515 17.6068 20.1478C17.7251 19.5223 17.4249 18.7872 17.1587 18.1395C16.9679 17.6722 16.7505 17.1413 16.8511 16.9564C16.8599 16.9401 16.8865 16.8913 17.027 16.8647C17.1306 16.8455 17.2163 16.7863 17.2681 16.6961C17.3968 16.4758 17.2947 16.1519 17.1039 15.6003C17.0078 15.3208 16.8082 14.7425 16.8732 14.605C16.8851 14.602 16.9176 14.5976 16.9812 14.6094C17.592 14.7144 17.9824 14.6642 18.2116 14.4497C18.4719 14.2057 18.4334 13.8478 18.4039 13.5594C18.3625 13.1735 18.395 13.169 18.4867 13.1557C18.9644 13.0891 19.2823 12.9324 19.4583 12.6736C19.6846 12.3409 19.5914 11.9519 19.5352 11.7197C19.5263 11.6842 19.516 11.6399 19.5101 11.6103C19.5707 11.529 19.7008 11.4476 19.8384 11.3633C20.1386 11.177 20.5142 10.9448 20.6547 10.4509C20.7715 10.0427 20.6961 9.5236 20.4299 8.87436C21.2995 9.22485 22.1262 9.6892 22.8848 10.2689C23.2043 11.279 23.9008 12.5893 24.5027 13.6245C24.3622 13.6496 24.1848 13.6748 23.9526 13.7014C23.7958 13.7192 23.605 13.8301 23.5858 14.2515C23.5769 14.4556 23.6021 14.7144 23.6272 14.988C23.6642 15.3666 23.7396 16.1563 23.5592 16.2347C23.0919 16.4373 22.8153 17.1087 22.8597 17.5834C22.8922 17.9236 23.0756 18.1558 23.3654 18.2208C23.4231 18.2341 23.4512 18.2268 23.5547 18.2016C24.4642 17.9798 24.8059 17.9931 24.9242 18.0168C24.9197 18.0241 24.9153 18.033 24.9079 18.0434C24.8754 18.0522 24.8251 18.0626 24.7866 18.0715C24.5086 18.1321 24.0413 18.2327 23.849 18.6142C23.7248 18.8597 23.744 19.1658 23.9052 19.5237C24.062 19.8727 24.337 19.855 24.5204 19.8431C24.7718 19.8269 25.1179 19.8047 25.7701 20.4155C25.9283 20.5648 26.0097 20.7231 26.0954 20.8902C26.2152 21.1253 26.3528 21.3856 26.6973 21.5424C26.2196 23.2963 25.3013 24.9379 23.9659 26.2732L23.9674 26.2776ZM26.8157 21.0659C26.6811 20.9772 26.6146 20.8485 26.5258 20.6755C26.4297 20.4877 26.3218 20.2748 26.1014 20.0677C25.2969 19.315 24.7941 19.3475 24.4924 19.3667C24.4495 19.3697 24.3918 19.3726 24.3682 19.3697C24.3637 19.3638 24.3563 19.3519 24.346 19.3297C24.278 19.1789 24.2114 18.9704 24.2809 18.8328C24.3696 18.6554 24.6832 18.5873 24.8917 18.543C25.0721 18.5045 25.1919 18.4779 25.2688 18.3729C25.4892 18.0727 25.4433 17.8701 25.3649 17.7533C25.1682 17.459 24.6122 17.4545 23.4454 17.7385C23.4409 17.74 23.438 17.74 23.435 17.7414C23.398 17.7207 23.3537 17.6719 23.3418 17.5418C23.3123 17.2224 23.5237 16.7772 23.7544 16.6782C24.2558 16.4608 24.1818 15.6903 24.1094 14.9449C24.0842 14.6891 24.0487 14.3179 24.0783 14.1729C24.3859 14.136 24.6018 14.102 24.7645 14.065C25.1342 14.6831 25.4329 15.1446 25.5217 15.2791C25.5764 15.3634 25.671 15.4152 25.7731 15.4152C25.8751 15.4152 25.9683 15.3634 26.0245 15.2791C26.0718 15.2067 26.1827 15.0351 26.3277 14.8044C27.1322 16.826 27.2771 19.0102 26.8187 21.0674L26.8157 21.0659ZM27.1529 9.28684C27.1529 8.5267 26.5347 7.90854 25.7746 7.90854C25.0144 7.90854 24.3963 8.5267 24.3963 9.28684C24.3963 10.047 25.0144 10.6651 25.7746 10.6651C26.5347 10.6651 27.1529 10.047 27.1529 9.28684ZM24.9952 9.28684C24.9952 8.85797 25.3442 8.50894 25.7731 8.50894C26.202 8.50894 26.551 8.85796 26.551 9.28684C26.551 9.7157 26.202 10.0647 25.7731 10.0647C25.3442 10.0647 24.9952 9.71571 24.9952 9.28684Z" fill="#00ADFF"/>
</svg>
